<svg xmlns="http://www.w3.org/2000/svg" width="375" viewBox="0 0 375 375" height="375" version="1.0"><defs><clipPath id="a"><path d="M 55.5 0 L 319.5 0 L 319.5 375 L 55.5 375 Z M 55.5 0"/></clipPath></defs><g clip-path="url(#a)"><path fill="#FF1616" d="M 286.429688 42.789062 L 237.214844 42.789062 C 233.582031 18.609375 212.671875 0 187.496094 0 C 162.320312 0 141.410156 18.609375 137.777344 42.789062 L 88.570312 42.789062 C 70.390625 42.789062 55.601562 57.578125 55.601562 75.757812 L 55.601562 115.425781 C 55.601562 119.566406 58.960938 122.925781 63.101562 122.925781 L 71.597656 122.925781 L 71.597656 324.539062 C 71.597656 352.363281 94.234375 375 122.058594 375 L 252.941406 375 C 280.765625 375 303.402344 352.363281 303.402344 324.539062 L 303.402344 122.925781 L 311.898438 122.925781 C 316.039062 122.925781 319.398438 119.566406 319.398438 115.425781 L 319.398438 75.757812 C 319.398438 57.578125 304.609375 42.789062 286.429688 42.789062 Z M 187.496094 15 C 204.378906 15 218.523438 26.925781 221.964844 42.789062 L 153.027344 42.789062 C 156.46875 26.925781 170.613281 15 187.496094 15 Z M 288.402344 324.539062 C 288.402344 344.09375 272.492188 360 252.941406 360 L 122.058594 360 C 102.507812 360 86.597656 344.09375 86.597656 324.539062 L 86.597656 122.925781 L 288.402344 122.925781 Z M 304.398438 107.925781 L 70.601562 107.925781 L 70.601562 75.757812 C 70.601562 65.851562 78.664062 57.789062 88.570312 57.789062 L 286.429688 57.789062 C 296.335938 57.789062 304.398438 65.851562 304.398438 75.757812 Z M 121.863281 309.800781 L 121.863281 152.160156 C 121.863281 148.019531 125.222656 144.660156 129.363281 144.660156 C 133.503906 144.660156 136.863281 148.019531 136.863281 152.160156 L 136.863281 309.800781 C 136.863281 313.941406 133.503906 317.300781 129.363281 317.300781 C 125.222656 317.300781 121.863281 313.941406 121.863281 309.800781 Z M 181.910156 309.800781 L 181.910156 152.160156 C 181.910156 148.019531 185.269531 144.660156 189.410156 144.660156 C 193.546875 144.660156 196.910156 148.019531 196.910156 152.160156 L 196.910156 309.800781 C 196.910156 313.941406 193.546875 317.300781 189.410156 317.300781 C 185.269531 317.300781 181.910156 313.941406 181.910156 309.800781 Z M 241.960938 309.800781 L 241.960938 152.160156 C 241.960938 148.019531 245.320312 144.660156 249.460938 144.660156 C 253.601562 144.660156 256.960938 148.019531 256.960938 152.160156 L 256.960938 309.800781 C 256.960938 313.941406 253.601562 317.300781 249.460938 317.300781 C 245.320312 317.300781 241.960938 313.941406 241.960938 309.800781 Z M 241.960938 309.800781"/></g></svg>